<?xml version="1.0" standalone="no"?>
<!DOCTYPE svg PUBLIC "-//W3C//DTD SVG 20010904//EN"
 "http://www.w3.org/TR/2001/REC-SVG-20010904/DTD/svg10.dtd">
<svg version="1.0" xmlns="http://www.w3.org/2000/svg"
 width="512.000000pt" height="512.000000pt" viewBox="0 0 512.000000 512.000000"
 preserveAspectRatio="xMidYMid meet">

<g transform="translate(0.000000,512.000000) scale(0.100000,-0.100000)"
fill="#000000" stroke="none">
<path d="M1580 3944 c-135 -37 -253 -159 -295 -308 -26 -88 -17 -212 19 -293
74 -163 245 -238 536 -237 210 1 469 46 978 168 147 36 344 81 437 101 290 62
905 160 960 153 23 -3 19 -12 -97 -203 -133 -220 -212 -371 -252 -485 -28 -77
-60 -120 -130 -171 -43 -32 -81 -37 -90 -13 -11 29 -6 104 9 140 8 20 49 71
90 113 98 101 99 131 5 131 -33 0 -44 -6 -80 -47 -23 -27 -49 -61 -58 -78
l-16 -30 -8 55 c-10 64 -29 97 -64 110 -109 42 -257 -74 -356 -278 -55 -111
-117 -192 -149 -192 -25 0 -24 11 6 114 46 159 29 200 -97 232 -38 9 -68 19
-68 23 0 3 7 28 15 55 41 136 -18 215 -100 133 -62 -62 -65 -131 -9 -205 l25
-33 -47 -82 c-90 -157 -226 -312 -300 -343 -35 -15 -35 -16 -29 -57 13 -78 51
-95 126 -57 78 40 205 242 270 429 l32 93 44 -6 c25 -3 48 -8 53 -11 4 -2 -24
-67 -61 -142 -47 -93 -75 -163 -86 -215 -16 -76 -16 -76 8 -125 29 -58 61 -73
111 -52 49 20 113 83 155 153 l37 61 8 -43 c27 -157 161 -165 304 -16 62 63
64 65 64 37 0 -46 34 -91 75 -99 66 -12 175 56 249 156 14 20 19 22 24 10 10
-28 70 -80 92 -80 59 0 142 73 260 228 l55 72 3 -82 c4 -104 -13 -229 -40
-285 -23 -48 -76 -100 -113 -109 -14 -3 -42 -4 -62 -1 -93 14 -87 16 -100 -37
-25 -102 27 -151 162 -151 99 1 166 28 224 90 81 88 90 172 41 382 -16 70 -34
161 -40 201 l-12 73 37 40 c52 58 153 195 160 220 10 31 -21 59 -66 59 -78 0
-146 -96 -175 -245 -16 -85 -20 -92 -63 -133 -55 -52 -95 -74 -124 -70 -21 3
-22 8 -21 78 2 85 35 186 128 383 64 135 201 317 239 317 40 0 123 -29 142
-49 25 -29 31 -100 10 -140 -25 -50 -14 -65 42 -57 71 10 146 48 171 88 49 79
32 164 -41 201 -22 12 -85 26 -150 34 -62 8 -114 16 -116 18 -2 2 11 21 28 42
33 40 38 62 21 94 -12 21 -50 25 -79 9 -10 -5 -43 -40 -74 -79 l-57 -69 -62
-6 c-452 -40 -626 -64 -1273 -176 -253 -44 -532 -89 -620 -100 -183 -24 -463
-36 -579 -25 -69 6 -83 11 -108 35 -59 59 -23 160 79 224 32 20 63 36 69 36 6
0 23 9 38 21 22 17 26 29 26 68 0 59 -21 130 -50 171 -45 64 -152 91 -250 64z
m1950 -979 c22 -26 8 -151 -24 -223 -30 -65 -93 -132 -124 -132 -88 0 -57 205
48 333 34 40 77 50 100 22z"/>
<path d="M728 3540 c-193 -48 -435 -302 -582 -611 -155 -326 -186 -561 -96
-740 109 -216 305 -208 577 23 46 39 89 79 96 88 7 9 29 36 49 59 l37 43 20
-40 c39 -76 100 -92 177 -47 55 33 150 158 194 258 18 42 37 77 40 77 4 0 51
29 104 65 53 36 96 63 96 61 0 -2 -21 -34 -46 -71 -72 -108 -137 -250 -142
-311 -4 -46 -1 -56 21 -78 23 -22 35 -26 89 -26 93 0 108 14 108 99 0 79 11
99 137 257 116 144 259 272 280 250 6 -6 -67 -143 -135 -255 -72 -116 -95
-181 -96 -268 -1 -58 3 -77 20 -100 63 -84 176 -39 270 107 39 60 54 73 54 46
0 -8 12 -29 27 -46 25 -30 30 -32 80 -28 44 4 62 12 113 52 33 26 60 45 60 43
0 -13 -291 -534 -332 -593 -59 -86 -167 -193 -225 -223 -76 -38 -126 -24 -162
46 -22 43 -4 168 32 217 13 18 16 18 93 -9 89 -32 152 -30 198 6 58 46 50 141
-15 174 -46 24 -107 14 -206 -36 l-83 -41 -67 35 c-296 154 -631 137 -858 -43
-111 -88 -195 -221 -195 -308 0 -98 57 -152 184 -178 91 -19 104 -13 87 39
-14 43 0 114 34 172 29 51 126 143 186 178 134 78 347 105 527 67 l52 -12 -54
-61 c-111 -123 -228 -353 -242 -471 -18 -149 113 -265 267 -236 226 43 421
299 721 949 65 141 149 316 186 389 l67 133 117 100 c141 121 151 137 98 164
-62 32 -107 13 -170 -75 l-45 -62 -7 43 c-14 84 -51 119 -123 119 -116 0 -283
-174 -336 -348 -20 -69 -92 -123 -122 -93 -21 21 23 138 114 303 41 74 48 134
21 168 -17 21 -29 25 -69 24 -95 -1 -224 -98 -342 -258 -35 -47 -65 -86 -67
-86 -2 0 6 24 17 53 39 98 49 129 49 161 0 90 -83 73 -265 -54 -47 -33 -88
-60 -91 -60 -4 0 -3 15 0 34 14 72 -23 157 -78 184 -66 33 -204 -33 -265 -125
-27 -40 -31 -55 -31 -114 0 -89 -42 -182 -97 -217 -165 -102 -257 -122 -327
-69 -98 75 -101 217 -10 478 96 277 231 481 355 539 50 24 51 24 65 5 39 -53
-43 -229 -191 -411 -109 -134 -116 -145 -105 -159 16 -19 132 -28 194 -15 74
15 125 55 163 126 79 148 93 378 29 475 -41 62 -139 91 -228 69z m472 -665
c14 -17 15 -120 1 -157 -10 -27 -45 -50 -93 -62 -59 -14 -73 16 -38 84 12 24
16 41 10 45 -17 11 -11 24 31 65 44 42 69 49 89 25z m1227 -46 c7 -13 13 -45
13 -70 0 -45 -3 -49 -75 -118 -88 -83 -125 -94 -125 -37 0 74 124 266 163 253
7 -2 18 -14 24 -28z m-1272 -249 c-18 -35 -81 -80 -111 -80 -39 0 -50 70 -11
70 12 1 45 9 72 19 68 25 68 25 50 -9z"/>
<path d="M4954 3475 c-13 -31 -24 -58 -24 -61 0 -2 -36 -82 -81 -177 -151
-321 -186 -418 -168 -466 11 -27 28 -43 40 -35 5 2 27 39 50 82 24 42 94 165
157 272 179 304 212 382 177 420 -14 15 -31 20 -72 20 l-54 0 -25 -55z"/>
<path d="M4606 2619 c-66 -52 -3 -144 73 -105 46 24 55 72 21 106 -26 26 -60
25 -94 -1z"/>
<path d="M3747 2244 c-71 -37 -121 -43 -457 -54 -333 -11 -419 -22 -591 -80
-118 -39 -196 -81 -244 -130 -37 -38 -40 -60 -7 -60 9 0 59 13 109 29 174 55
243 65 438 65 148 0 212 -5 359 -28 212 -33 328 -33 390 0 72 37 134 187 107
257 -13 34 -40 35 -104 1z"/>
</g>
</svg>
